<svg id="Layer_1" data-name="Layer 1" xmlns="http://www.w3.org/2000/svg" viewBox="0 0 669.52 446.66"><defs><style>.cls-1{fill:#ddcedc;}.cls-2{fill:#2f4052;}.cls-3{fill:#ea5863;}.cls-4,.cls-6,.cls-8{fill:none;stroke-linejoin:round;}.cls-4{stroke:#f2f2f3;}.cls-5{font-size:25px;fill:#f2f2f3;font-family:CronosPro-Regular, Cronos Pro;}.cls-6{stroke:#78777a;}.cls-7{fill:#78777a;}.cls-8{stroke:#2381c4;}.cls-9{fill:#2381c4;}</style></defs><rect class="cls-1" x="464.88" y="8.92" width="192" height="426" rx="19.2"/><path class="cls-2" d="M490.72,79.26a13.52,13.52,0,0,0,6.08,1.52c2.52,0,3.86-1,3.86-2.64s-1.16-2.37-4.07-3.39c-4-1.43-6.69-3.64-6.69-7.18,0-4.14,3.47-7.29,9.18-7.29a14.24,14.24,0,0,1,6.19,1.23l-1.21,4.39A11.77,11.77,0,0,0,499,64.75c-2.39,0-3.53,1.11-3.53,2.35,0,1.54,1.34,2.22,4.49,3.41,4.29,1.61,6.28,3.83,6.28,7.26,0,4.06-3.1,7.53-9.78,7.53a15.66,15.66,0,0,1-6.85-1.51Z"/><path class="cls-2" d="M515.89,62.28v5h3.94v4h-3.94v6.39c0,2.12.53,3.1,2.16,3.1a7.21,7.21,0,0,0,1.63-.16l.05,4.16a11.46,11.46,0,0,1-3.55.47,5.7,5.7,0,0,1-4.13-1.53c-1-1-1.52-2.72-1.52-5.22V71.34h-2.34v-4h2.34V63.52Z"/><path class="cls-2" d="M523,73.11c0-2.58,0-4.29-.14-5.81h4.71l.19,3.27h.14a5.16,5.16,0,0,1,4.75-3.66,4.77,4.77,0,0,1,1.18.1v5.15a6.85,6.85,0,0,0-1.49-.15,3.53,3.53,0,0,0-3.75,2.78,6.4,6.4,0,0,0-.1,1.22v8.91H523Z"/><path class="cls-2" d="M553.27,79.28c0,2.29.06,4.18.14,5.64h-4.75l-.25-2.48h-.12a6.23,6.23,0,0,1-5.49,2.88c-3.58,0-6.18-2.24-6.18-7.66V67.3h5.48v9.47c0,2.58.83,4.12,2.76,4.12A2.91,2.91,0,0,0,547.58,79a3,3,0,0,0,.2-1.16V67.3h5.49Z"/><path class="cls-2" d="M570.88,84.48a12.78,12.78,0,0,1-4.9.82c-5.7,0-9.32-3.48-9.32-9,0-5.15,3.52-9.36,10.07-9.36a12.67,12.67,0,0,1,4.18.7l-.85,4.07a7.33,7.33,0,0,0-3.07-.56,4.95,4.95,0,0,0,.09,9.89,8,8,0,0,0,3.16-.58Z"/><path class="cls-2" d="M580,62.28v5H584v4H580v6.39c0,2.12.52,3.1,2.16,3.1a7.27,7.27,0,0,0,1.63-.16l0,4.16a11.46,11.46,0,0,1-3.55.47,5.7,5.7,0,0,1-4.13-1.53c-1-1-1.51-2.72-1.51-5.22V71.34h-2.34v-4h2.34V63.52Z"/><path class="cls-2" d="M603.7,79.28c0,2.29.07,4.18.15,5.64H599.1l-.26-2.48h-.11a6.24,6.24,0,0,1-5.49,2.88c-3.58,0-6.19-2.24-6.19-7.66V67.3h5.49v9.47c0,2.58.82,4.12,2.75,4.12A2.92,2.92,0,0,0,598,79a3,3,0,0,0,.2-1.16V67.3h5.48Z"/><path class="cls-2" d="M608.09,73.11c0-2.58,0-4.29-.14-5.81h4.71l.2,3.27H613a5.17,5.17,0,0,1,4.76-3.66,4.73,4.73,0,0,1,1.17.1v5.15a6.82,6.82,0,0,0-1.48-.15,3.53,3.53,0,0,0-3.76,2.78,6.4,6.4,0,0,0-.1,1.22v8.91h-5.49Z"/><path class="cls-2" d="M626,77.88c.16,2.27,2.41,3.35,5,3.35a14.61,14.61,0,0,0,4.85-.75l.74,3.71a17.13,17.13,0,0,1-6.38,1.11c-6,0-9.4-3.47-9.4-9,0-4.48,2.79-9.43,8.88-9.43,5.71,0,7.87,4.44,7.87,8.8a10.29,10.29,0,0,1-.2,2.17Zm6.43-3.76c0-1.32-.58-3.57-3.07-3.57-2.32,0-3.26,2.12-3.41,3.57Z"/><rect class="cls-1" x="240.88" y="8.92" width="192" height="426" rx="19.2"/><path class="cls-2" d="M274.89,61a43.78,43.78,0,0,1,7.07-.53c3.35,0,5.41.33,7.18,1.36A5.28,5.28,0,0,1,292,66.62c0,2.13-1.25,4.14-4,5.16v.09a6,6,0,0,1,4.83,5.95A6.41,6.41,0,0,1,290.35,83c-1.78,1.43-4.7,2.21-9.54,2.21a42.07,42.07,0,0,1-5.92-.36Zm5.43,9.28h1.78c2.91,0,4.42-1.2,4.42-3s-1.39-2.82-3.87-2.82a11.92,11.92,0,0,0-2.33.17Zm0,10.74a13.42,13.42,0,0,0,2.11.1c2.49,0,4.68-1,4.68-3.52s-2.18-3.4-4.91-3.4h-1.88Z"/><path class="cls-2" d="M313.81,75.94c0,6.44-4.56,9.38-9.29,9.38-5.12,0-9.09-3.39-9.09-9.08s3.75-9.33,9.41-9.33C310.23,66.91,313.81,70.62,313.81,75.94Zm-12.74.18c0,3,1.27,5.29,3.61,5.29,2.13,0,3.48-2.14,3.48-5.32,0-2.6-1-5.27-3.48-5.27S301.07,73.51,301.07,76.12Z"/><path class="cls-2" d="M317.2,72.93c0-2.19-.06-4.05-.14-5.63h4.75l.25,2.45h.12a6.36,6.36,0,0,1,5.44-2.84c3.6,0,6.31,2.4,6.31,7.58V84.92h-5.49V75.16c0-2.27-.81-3.82-2.78-3.82a3,3,0,0,0-2.78,2.06,4,4,0,0,0-.19,1.36V84.92H317.2Z"/><path class="cls-2" d="M355.36,59.37V79.66c0,2,.07,4.08.14,5.26h-4.86l-.23-2.58h-.08a6.13,6.13,0,0,1-5.51,3c-4.16,0-7.53-3.57-7.53-9,0-5.91,3.69-9.36,7.89-9.36,2.18,0,3.84.77,4.63,2h.07V59.37Zm-5.48,15.41a5.56,5.56,0,0,0-.07-1,3.25,3.25,0,0,0-3.17-2.68c-2.51,0-3.79,2.23-3.79,5,0,3,1.47,4.84,3.75,4.84a3.24,3.24,0,0,0,3.17-2.62,5.45,5.45,0,0,0,.11-1.24Z"/><path class="cls-2" d="M365.4,62.41a2.72,2.72,0,0,1-2.95,2.74,2.75,2.75,0,1,1,2.95-2.74Zm-5.64,22.51V67.3h5.48V84.92Z"/><path class="cls-2" d="M369.62,72.93c0-2.19-.07-4.05-.14-5.63h4.75l.25,2.45h.11A6.38,6.38,0,0,1,380,66.91c3.6,0,6.3,2.4,6.3,7.58V84.92h-5.48V75.16c0-2.27-.81-3.82-2.79-3.82a2.94,2.94,0,0,0-2.77,2.06,4,4,0,0,0-.2,1.36V84.92h-5.48Z"/><path class="cls-2" d="M407.54,67.3c-.09,1.14-.15,2.63-.15,5.26v9.8c0,3.39-.69,6.16-2.68,7.92a10.65,10.65,0,0,1-7.14,2.17,14,14,0,0,1-6.34-1.35l1.09-4.16a10.79,10.79,0,0,0,5.1,1.32c2.59,0,4.57-1.38,4.57-4.63V82.49h-.07a5.64,5.64,0,0,1-4.75,2.28c-4.35,0-7.45-3.54-7.45-8.58,0-5.68,3.66-9.28,8-9.28a5.27,5.27,0,0,1,4.82,2.5h.08l.18-2.11Zm-5.63,7.19a4.09,4.09,0,0,0-.11-1,3,3,0,0,0-2.95-2.42c-2,0-3.58,1.82-3.58,5,0,2.63,1.3,4.68,3.57,4.68a3,3,0,0,0,2.91-2.21,5.81,5.81,0,0,0,.16-1.45Z"/><rect class="cls-1" x="16.88" y="8.92" width="192" height="426" rx="19.2"/><path class="cls-2" d="M59.73,79.26a13.56,13.56,0,0,0,6.08,1.52c2.52,0,3.86-1,3.86-2.64s-1.16-2.37-4.07-3.39c-4-1.43-6.69-3.64-6.69-7.18,0-4.14,3.48-7.29,9.18-7.29a14.2,14.2,0,0,1,6.19,1.23L73.07,65.9A11.77,11.77,0,0,0,68,64.75c-2.39,0-3.53,1.11-3.53,2.35,0,1.54,1.34,2.22,4.49,3.41,4.29,1.61,6.28,3.83,6.28,7.26,0,4.06-3.1,7.53-9.78,7.53a15.66,15.66,0,0,1-6.85-1.51Z"/><path class="cls-2" d="M78.79,73.23c0-2.32-.07-4.27-.14-5.93h4.76l.25,2.47h.07a6.81,6.81,0,0,1,5.87-2.86c3.86,0,7.32,3.35,7.32,9,0,6.43-4.09,9.44-8,9.44a5.46,5.46,0,0,1-4.57-2h-.07v8.74H78.79Zm5.48,4.15a5.22,5.22,0,0,0,.11,1.15,3.33,3.33,0,0,0,3.2,2.59c2.37,0,3.78-2,3.78-5,0-2.8-1.25-4.94-3.69-4.94A3.44,3.44,0,0,0,84.39,74a3.93,3.93,0,0,0-.12,1Z"/><path class="cls-2" d="M104.54,77.88c.17,2.27,2.41,3.35,5,3.35a14.65,14.65,0,0,0,4.85-.75l.73,3.71a17.13,17.13,0,0,1-6.38,1.11c-6,0-9.39-3.47-9.39-9,0-4.48,2.79-9.43,8.88-9.43,5.71,0,7.86,4.44,7.86,8.8a11.21,11.21,0,0,1-.19,2.17ZM111,74.12c0-1.32-.58-3.57-3.07-3.57-2.31,0-3.25,2.12-3.4,3.57Z"/><path class="cls-2" d="M132.55,84.48a12.83,12.83,0,0,1-4.91.82c-5.69,0-9.31-3.48-9.31-9,0-5.15,3.52-9.36,10.07-9.36a12.71,12.71,0,0,1,4.18.7l-.86,4.07a7.27,7.27,0,0,0-3.06-.56,4.95,4.95,0,0,0,.09,9.89,8,8,0,0,0,3.15-.58Z"/><path class="cls-2" d="M141.21,62.41a2.73,2.73,0,0,1-3,2.74,2.75,2.75,0,1,1,3-2.74Zm-5.64,22.51V67.3h5.48V84.92Z"/><path class="cls-2" d="M149.65,77.88c.16,2.27,2.41,3.35,5,3.35a14.57,14.57,0,0,0,4.85-.75l.74,3.71a17.13,17.13,0,0,1-6.38,1.11c-6,0-9.4-3.47-9.4-9,0-4.48,2.8-9.43,8.88-9.43,5.71,0,7.87,4.44,7.87,8.8a10.29,10.29,0,0,1-.2,2.17Zm6.43-3.76c0-1.32-.58-3.57-3.07-3.57-2.32,0-3.25,2.12-3.41,3.57Z"/><path class="cls-2" d="M164.41,80.15a10.74,10.74,0,0,0,4.7,1.31c1.65,0,2.36-.56,2.36-1.45s-.56-1.36-2.58-2c-3.67-1.21-5-3.2-5-5.27,0-3.31,2.8-5.79,7.17-5.79a11.55,11.55,0,0,1,5,1l-1,3.77a9,9,0,0,0-3.82-1c-1.34,0-2.1.54-2.1,1.42s.7,1.29,2.85,2c3.35,1.13,4.75,2.85,4.77,5.42,0,3.29-2.57,5.71-7.61,5.71a12.62,12.62,0,0,1-5.71-1.24Z"/><rect class="cls-3" x="33.38" y="237.42" width="161" height="81" rx="8.1"/><rect class="cls-4" x="33.38" y="237.42" width="161" height="81" rx="8.1"/><text class="cls-5" transform="translate(68.31 271.92)">Chemical </text><text class="cls-5" transform="translate(73.19 298.92)">Formula</text><line class="cls-6" x1="193.73" y1="277.39" x2="257.98" y2="185.03"/><rect class="cls-7" x="258.38" y="145.42" width="161" height="80" rx="8"/><rect class="cls-4" x="258.38" y="145.42" width="161" height="80" rx="8"/><text class="cls-5" transform="translate(271.74 193.92)">Ionic bonding</text><line class="cls-6" x1="194.38" y1="277.76" x2="258.63" y2="277.76"/><rect class="cls-7" x="258.38" y="237.42" width="161" height="81" rx="8.1"/><rect class="cls-4" x="258.38" y="237.42" width="161" height="81" rx="8.1"/><text class="cls-5" transform="translate(295.11 271.92)">Covalent </text><text class="cls-5" transform="translate(298.07 298.92)">bonding</text><line class="cls-8" x1="418.6" y1="277.39" x2="482.85" y2="231.21"/><rect class="cls-9" x="483.38" y="191.42" width="161" height="80" rx="8"/><rect class="cls-4" x="483.38" y="191.42" width="161" height="80" rx="8"/><text class="cls-5" transform="translate(492.54 225.92)">Giant covalent </text><text class="cls-5" transform="translate(518.86 252.92)">structure</text><line class="cls-8" x1="418.6" y1="277.39" x2="482.85" y2="323.57"/><rect class="cls-9" x="483.38" y="283.42" width="161" height="81" rx="8.1"/><rect class="cls-4" x="483.38" y="283.42" width="161" height="81" rx="8.1"/><text class="cls-5" transform="translate(486.81 318.92)">Simple covalent </text><text class="cls-5" transform="translate(509.76 345.92)">compound</text><line class="cls-6" x1="193.73" y1="277.39" x2="257.98" y2="369.75"/><rect class="cls-7" x="258.38" y="330.42" width="161" height="80" rx="8"/><rect class="cls-4" x="258.38" y="330.42" width="161" height="80" rx="8"/><text class="cls-5" transform="translate(299.39 364.92)">Metallic </text><text class="cls-5" transform="translate(298.08 391.92)">bonding</text></svg>