<?xml version="1.0" encoding="utf-8"?>
<!-- Generator: Adobe Illustrator 23.0.1, SVG Export Plug-In . SVG Version: 6.00 Build 0)  -->
<svg version="1.1" id="Layer_1" xmlns="http://www.w3.org/2000/svg" xmlns:xlink="http://www.w3.org/1999/xlink" x="0px" y="0px"
	 viewBox="0 0 315.8 68.5" style="enable-background:new 0 0 315.8 68.5;" xml:space="preserve">
<style type="text/css">
	.st0{fill:none;stroke:url(#SVGID_1_);stroke-width:10;stroke-miterlimit:10;}
	.st1{fill:url(#SVGID_2_);}
	.st2{fill:none;stroke:url(#SVGID_3_);stroke-width:10;stroke-miterlimit:10;}
	.st3{fill:url(#SVGID_4_);}
	.st4{fill:#F6AC46;}
	.st5{fill:#010101;}
	.st6{fill:#FFFFFF;stroke:#010101;stroke-width:3;stroke-miterlimit:10;}
</style>
<g id="motion_line_-_L">
	<g>
		<linearGradient id="SVGID_1_" gradientUnits="userSpaceOnUse" x1="302.9712" y1="34.75" x2="162.9712" y2="34.75">
			<stop  offset="0.6623" style="stop-color:#EB5763"/>
			<stop  offset="1" style="stop-color:#EB5763;stop-opacity:0"/>
		</linearGradient>
		<line class="st0" x1="163" y1="34.8" x2="278.5" y2="34.8"/>
		<g>
			<linearGradient id="SVGID_2_" gradientUnits="userSpaceOnUse" x1="302.9712" y1="34.75" x2="162.9712" y2="34.75">
				<stop  offset="0.6623" style="stop-color:#EB5763"/>
				<stop  offset="1" style="stop-color:#EB5763;stop-opacity:0"/>
			</linearGradient>
			<path class="st1" d="M273.1,34.8l-6.6-10.8l0.4-0.2l17.6,7c6.1,1.4,12.3,2.7,18.4,4.1c-6.1,1.4-12.3,2.7-18.4,4.1l-17.6,7
				l-0.4-0.2L273.1,34.8z"/>
		</g>
	</g>
</g>
<g id="motion_line_-_R_1_">
	<g>
		<linearGradient id="SVGID_3_" gradientUnits="userSpaceOnUse" x1="22.9712" y1="34.75" x2="162.9712" y2="34.75">
			<stop  offset="0.6623" style="stop-color:#EB5763"/>
			<stop  offset="1" style="stop-color:#EB5763;stop-opacity:0"/>
		</linearGradient>
		<line class="st2" x1="163" y1="34.8" x2="47.4" y2="34.8"/>
		<g>
			<linearGradient id="SVGID_4_" gradientUnits="userSpaceOnUse" x1="22.9712" y1="34.75" x2="162.9712" y2="34.75">
				<stop  offset="0.6623" style="stop-color:#EB5763"/>
				<stop  offset="1" style="stop-color:#EB5763;stop-opacity:0"/>
			</linearGradient>
			<path class="st3" d="M52.8,34.8l6.6,10.8L59,45.8l-17.6-7c-6.1-1.4-12.3-2.7-18.4-4.1c6.1-1.4,12.3-2.7,18.4-4.1l17.6-7l0.4,0.2
				L52.8,34.8z"/>
		</g>
	</g>
</g>
<g id="electron_L">
	<g id="electron_2">
		<circle class="st4" cx="135" cy="34.8" r="18.5"/>
		<path class="st5" d="M135,16.8c9.9,0,18,8.1,18,18s-8.1,18-18,18s-18-8.1-18-18S125,16.8,135,16.8 M135,15.8c-10.5,0-19,8.5-19,19
			s8.5,19,19,19s19-8.5,19-19S145.5,15.8,135,15.8L135,15.8z"/>
	</g>
	<line class="st6" x1="129" y1="35.2" x2="142" y2="35.2"/>
</g>
<g id="electron_R">
	<g id="electron_1">
		<circle class="st4" cx="193" cy="34.8" r="18.5"/>
		<path class="st5" d="M193,16.8c9.9,0,18,8.1,18,18s-8.1,18-18,18s-18-8.1-18-18S183,16.8,193,16.8 M193,15.8c-10.5,0-19,8.5-19,19
			s8.5,19,19,19s19-8.5,19-19S203.5,15.8,193,15.8L193,15.8z"/>
	</g>
	<line class="st6" x1="186" y1="35.2" x2="199" y2="35.2"/>
</g>
</svg>
