<?xml version="1.0" encoding="UTF-8"?>
<svg xmlns="http://www.w3.org/2000/svg" onmouseup="{ if(window.parent.document.onmouseup) window.parent.document.onmouseup(arguments[0]);}" viewBox="0 0 277.76 248.2" data-name="Layer 1" id="Layer_1" xmlns:xlink="http://www.w3.org/1999/xlink"><defs><style>.cls-1,.cls-9{fill:none;stroke:#78777a;}.cls-1,.cls-2,.cls-3,.cls-4,.cls-5,.cls-6,.cls-8,.cls-9{stroke-miterlimit:10;}.cls-1{stroke-width:0.5px;}.cls-2,.cls-3,.cls-8{fill-opacity:0.5;}.cls-2,.cls-3,.cls-4,.cls-5,.cls-6,.cls-8{stroke:#010101;}.cls-2,.cls-3,.cls-4,.cls-5,.cls-8{stroke-width:0.42px;}.cls-2{fill:url(#linear-gradient);}.cls-3{fill:url(#linear-gradient-2);}.cls-10,.cls-11,.cls-12,.cls-4,.cls-8{fill:#78777a;}.cls-5,.cls-6{fill:#f6ac46;}.cls-6{stroke-width:0.48px;}.cls-11,.cls-7{font-size:12px;}.cls-7{fill:#231f20;font-family:MyriadPro-Regular, Myriad Pro;}.cls-9{stroke-width:2px;}.cls-11{font-family:MyriadPro-Bold, Myriad Pro;font-weight:700;}.cls-12{font-size:8px;font-family:MyriadPro-Semibold, Myriad Pro;font-weight:600;}</style><linearGradient gradientUnits="userSpaceOnUse" y2="167.18" x2="263.46" y1="167.18" x1="7.99" id="linear-gradient"><stop stop-color="#93288d" offset="0"/><stop stop-color="#952d90" offset="0.06"/><stop stop-color="#9c3b97" offset="0.13"/><stop stop-color="#a753a3" offset="0.21"/><stop stop-color="#b774b4" offset="0.29"/><stop stop-color="#cc9fca" offset="0.37"/><stop stop-color="#e4d2e4" offset="0.46"/><stop stop-color="#f4f4f5" offset="0.51"/><stop stop-color="#f4e8d8" offset="0.55"/><stop stop-color="#f5d6ac" offset="0.62"/><stop stop-color="#f5c787" offset="0.7"/><stop stop-color="#f6bb6b" offset="0.78"/><stop stop-color="#f6b356" offset="0.85"/><stop stop-color="#f6ae4a" offset="0.93"/><stop stop-color="#f6ac46" offset="1"/></linearGradient><linearGradient xlink:href="#linear-gradient" y2="212.76" x2="263.46" y1="212.76" x1="7.99" id="linear-gradient-2"/></defs><rect data-cppathid="10000" height="14.15" width="14.17" y="67.67" x="8.02" class="cls-1"/><rect data-cppathid="10001" height="14.15" width="14.17" y="67.67" x="22.19" class="cls-1"/><rect data-cppathid="10002" height="14.15" width="14.17" y="67.67" x="36.36" class="cls-1"/><rect data-cppathid="10003" height="14.15" width="14.17" y="67.67" x="50.54" class="cls-1"/><rect data-cppathid="10004" height="14.15" width="14.17" y="67.67" x="64.71" class="cls-1"/><rect data-cppathid="10005" height="14.15" width="14.17" y="67.67" x="78.88" class="cls-1"/><rect data-cppathid="10006" height="14.15" width="14.17" y="67.67" x="93.06" class="cls-1"/><rect data-cppathid="10007" height="14.15" width="14.17" y="67.67" x="107.23" class="cls-1"/><rect data-cppathid="10008" height="14.15" width="14.17" y="67.67" x="121.4" class="cls-1"/><rect data-cppathid="10009" height="14.15" width="14.17" y="67.67" x="135.58" class="cls-1"/><rect data-cppathid="10010" height="14.15" width="14.17" y="67.67" x="149.75" class="cls-1"/><rect data-cppathid="10011" height="14.15" width="14.17" y="67.67" x="163.92" class="cls-1"/><rect data-cppathid="10012" height="14.15" width="14.17" y="67.67" x="178.1" class="cls-1"/><rect data-cppathid="10013" height="14.15" width="14.17" y="67.67" x="192.27" class="cls-1"/><rect data-cppathid="10014" height="14.15" width="14.17" y="67.67" x="206.44" class="cls-1"/><rect data-cppathid="10015" height="14.15" width="14.17" y="67.67" x="220.62" class="cls-1"/><rect data-cppathid="10016" height="14.15" width="14.17" y="67.67" x="234.79" class="cls-1"/><rect data-cppathid="10017" height="14.15" width="14.17" y="67.67" x="248.96" class="cls-1"/><rect data-cppathid="10018" height="14.15" width="14.17" y="81.82" x="8.02" class="cls-1"/><rect data-cppathid="10019" height="14.15" width="14.17" y="81.82" x="22.19" class="cls-1"/><rect data-cppathid="10020" height="14.15" width="14.17" y="39.38" x="8.02" class="cls-1"/><rect data-cppathid="10021" height="14.15" width="14.17" y="11.7" x="107.23" class="cls-1"/><rect data-cppathid="10022" height="14.15" width="14.17" y="39.38" x="22.19" class="cls-1"/><rect data-cppathid="10023" height="14.15" width="14.17" y="53.52" x="8.02" class="cls-1"/><rect data-cppathid="10024" height="14.15" width="14.17" y="53.52" x="22.19" class="cls-1"/><rect data-cppathid="10025" height="14.15" width="14.17" y="81.82" x="36.36" class="cls-1"/><rect data-cppathid="10026" height="14.15" width="14.17" y="81.82" x="50.54" class="cls-1"/><rect data-cppathid="10027" height="14.15" width="14.17" y="81.82" x="64.71" class="cls-1"/><rect data-cppathid="10028" height="14.15" width="14.17" y="81.82" x="78.88" class="cls-1"/><rect data-cppathid="10029" height="14.15" width="14.17" y="81.82" x="93.06" class="cls-1"/><rect data-cppathid="10030" height="14.15" width="14.17" y="81.82" x="107.23" class="cls-1"/><rect data-cppathid="10031" height="14.15" width="14.17" y="81.82" x="121.4" class="cls-1"/><rect data-cppathid="10032" height="14.15" width="14.17" y="81.82" x="135.58" class="cls-1"/><rect data-cppathid="10033" height="14.15" width="14.17" y="81.82" x="149.75" class="cls-1"/><rect data-cppathid="10034" height="14.15" width="14.17" y="81.82" x="163.92" class="cls-1"/><rect data-cppathid="10035" height="14.15" width="14.17" y="81.82" x="178.1" class="cls-1"/><rect data-cppathid="10036" height="14.15" width="14.17" y="81.82" x="192.27" class="cls-1"/><rect data-cppathid="10037" height="14.15" width="14.17" y="81.82" x="206.44" class="cls-1"/><rect data-cppathid="10038" height="14.15" width="14.17" y="81.82" x="220.62" class="cls-1"/><rect data-cppathid="10039" height="14.15" width="14.17" y="81.82" x="234.79" class="cls-1"/><rect data-cppathid="10040" height="14.15" width="14.17" y="81.82" x="248.96" class="cls-1"/><rect data-cppathid="10041" height="14.15" width="14.17" y="39.38" x="178.1" class="cls-1"/><rect data-cppathid="10042" height="14.15" width="14.17" y="39.38" x="192.27" class="cls-1"/><rect data-cppathid="10043" height="14.15" width="14.17" y="39.38" x="206.44" class="cls-1"/><rect data-cppathid="10044" height="14.15" width="14.17" y="39.38" x="220.62" class="cls-1"/><rect data-cppathid="10045" height="14.15" width="14.17" y="39.38" x="234.79" class="cls-1"/><rect data-cppathid="10046" height="14.15" width="14.17" y="39.38" x="248.96" class="cls-1"/><rect data-cppathid="10047" height="14.15" width="14.17" y="25.22" x="249.09" class="cls-1"/><rect data-cppathid="10048" height="14.15" width="14.17" y="53.52" x="178.1" class="cls-1"/><rect data-cppathid="10049" height="14.15" width="14.17" y="53.52" x="192.27" class="cls-1"/><rect data-cppathid="10050" height="14.15" width="14.17" y="53.52" x="206.44" class="cls-1"/><rect data-cppathid="10051" height="14.15" width="14.17" y="53.52" x="220.62" class="cls-1"/><rect data-cppathid="10052" height="14.15" width="14.17" y="53.52" x="234.79" class="cls-1"/><rect data-cppathid="10053" height="14.15" width="14.17" y="53.52" x="248.96" class="cls-1"/><rect data-cppathid="10054" height="14.15" width="14.17" y="95.97" x="8.02" class="cls-1"/><rect data-cppathid="10055" height="14.15" width="14.17" y="95.97" x="22.19" class="cls-1"/><rect data-cppathid="10056" height="14.15" width="14.17" y="95.97" x="36.36" class="cls-1"/><rect data-cppathid="10057" height="14.15" width="14.17" y="95.97" x="50.54" class="cls-1"/><rect data-cppathid="10058" height="14.15" width="14.17" y="95.97" x="64.71" class="cls-1"/><rect data-cppathid="10059" height="14.15" width="14.17" y="95.97" x="78.88" class="cls-1"/><rect data-cppathid="10060" height="14.15" width="14.17" y="95.97" x="93.06" class="cls-1"/><rect data-cppathid="10061" height="14.15" width="14.17" y="95.97" x="107.23" class="cls-1"/><rect data-cppathid="10062" height="14.15" width="14.17" y="95.97" x="121.4" class="cls-1"/><rect data-cppathid="10063" height="14.15" width="14.17" y="95.97" x="135.58" class="cls-1"/><rect data-cppathid="10064" height="14.15" width="14.17" y="95.97" x="149.75" class="cls-1"/><rect data-cppathid="10065" height="14.15" width="14.17" y="95.97" x="163.92" class="cls-1"/><rect data-cppathid="10066" height="14.15" width="14.17" y="95.97" x="178.1" class="cls-1"/><rect data-cppathid="10067" height="14.15" width="14.17" y="95.97" x="192.27" class="cls-1"/><rect data-cppathid="10068" height="14.15" width="14.17" y="95.97" x="206.44" class="cls-1"/><rect data-cppathid="10069" height="14.15" width="14.17" y="95.97" x="220.62" class="cls-1"/><rect data-cppathid="10070" height="14.15" width="14.17" y="95.97" x="234.79" class="cls-1"/><rect data-cppathid="10071" height="14.15" width="14.17" y="95.97" x="248.96" class="cls-1"/><rect data-cppathid="10072" height="14.15" width="14.17" y="110.11" x="8.02" class="cls-1"/><rect data-cppathid="10073" height="14.15" width="14.17" y="110.11" x="22.19" class="cls-1"/><rect data-cppathid="10074" height="14.15" width="14.17" y="110.11" x="36.36" class="cls-1"/><rect data-cppathid="10075" height="14.15" width="14.17" y="110.11" x="50.54" class="cls-1"/><rect data-cppathid="10076" height="14.15" width="14.17" y="110.11" x="64.71" class="cls-1"/><rect data-cppathid="10077" height="14.15" width="14.17" y="110.11" x="78.88" class="cls-1"/><rect data-cppathid="10078" height="14.15" width="14.17" y="110.11" x="93.06" class="cls-1"/><rect data-cppathid="10079" height="14.15" width="14.17" y="110.11" x="107.23" class="cls-1"/><rect data-cppathid="10080" height="14.15" width="14.17" y="110.11" x="121.4" class="cls-1"/><rect data-cppathid="10081" height="14.15" width="14.17" y="110.11" x="135.58" class="cls-1"/><rect data-cppathid="10082" height="14.15" width="14.17" y="110.11" x="149.75" class="cls-1"/><rect data-cppathid="10083" height="14.15" width="14.17" y="110.11" x="163.92" class="cls-1"/><rect data-cppathid="10084" height="14.15" width="14.17" y="110.11" x="178.1" class="cls-1"/><rect data-cppathid="10085" height="14.15" width="14.17" y="110.11" x="192.27" class="cls-1"/><rect data-cppathid="10086" height="14.15" width="14.17" y="110.11" x="206.44" class="cls-1"/><rect data-cppathid="10087" height="14.15" width="14.17" y="110.11" x="220.62" class="cls-1"/><rect data-cppathid="10088" height="14.15" width="14.17" y="110.11" x="234.79" class="cls-1"/><rect data-cppathid="10089" height="14.15" width="14.17" y="110.11" x="248.96" class="cls-1"/><polygon data-cppathid="10090" points="263.46 181.1 263.46 153.25 7.99 166.71 263.46 181.1" class="cls-2"/><polygon data-cppathid="10091" points="263.46 226.69 263.46 198.83 7.99 212.29 263.46 226.69" class="cls-3"/><rect data-cppathid="10092" height="14.73" width="14.38" y="38.75" x="192.31" class="cls-4"/><rect data-cppathid="10093" height="14.73" width="14.38" y="53.48" x="234.75" class="cls-5"/><rect data-cppathid="10094" height="42.33" width="2.71" y="148.34" x="245.27" class="cls-6"/><text data-cppathid="10095" transform="translate(241.23 144.48)" class="cls-7">Cl</text><rect data-cppathid="10096" height="44.94" width="2.37" y="180.54" x="176.01" class="cls-8"/><text data-cppathid="10097" transform="translate(173.4 237.98)" class="cls-7">C</text><line data-cppathid="10098" y2="184.28" x2="234.61" y1="184.28" x1="190.41" class="cls-9"/><path data-cppathid="10099" d="M192.57,184.28,195.2,180l-.15-.09-7.05,2.8-7.37,1.62L188,185.9l7.05,2.8.15-.08Z" class="cls-10"/><path data-cppathid="10100" d="M232.45,184.28,229.82,180l.15-.09,7.05,2.8,7.37,1.62L237,185.9,230,188.7l-.15-.08Z" class="cls-10"/><text data-cppathid="10101" transform="translate(197.7 196.53)" class="cls-11">&gt; 1.8</text><text data-cppathid="10102" transform="translate(257.29 193.35)" class="cls-12">4.0</text><text data-cppathid="10103" transform="translate(2.32 193.35)" class="cls-12">0.7</text></svg>