<?xml version="1.0" encoding="UTF-8"?>
<svg xmlns="http://www.w3.org/2000/svg" onmouseup="{ if(window.parent.document.onmouseup) window.parent.document.onmouseup(arguments[0]);}" viewBox="0 0 279.16 150.61" data-name="Layer 1" id="Layer_1" xmlns:xlink="http://www.w3.org/1999/xlink"><defs><style>.cls-1{fill:none;stroke:#1db190;stroke-width:2px;}.cls-1,.cls-3,.cls-4,.cls-6{stroke-miterlimit:10;}.cls-2,.cls-7{fill:#1db190;}.cls-3,.cls-4,.cls-6{fill-opacity:0.5;stroke:#010101;stroke-width:0.42px;}.cls-3{fill:url(#linear-gradient);}.cls-4{fill:#78777a;}.cls-5,.cls-7{font-size:12px;}.cls-5{fill:#231f20;font-family:MyriadPro-Regular, Myriad Pro;}.cls-6{fill:url(#linear-gradient-2);}.cls-7{font-family:MyriadPro-Bold, Myriad Pro;font-weight:700;}</style><linearGradient gradientUnits="userSpaceOnUse" y2="50.9" x2="266.75" y1="50.9" x1="11.27" id="linear-gradient"><stop stop-color="#93288d" offset="0"/><stop stop-color="#952d90" offset="0.06"/><stop stop-color="#9c3b97" offset="0.13"/><stop stop-color="#a753a3" offset="0.21"/><stop stop-color="#b774b4" offset="0.29"/><stop stop-color="#cc9fca" offset="0.37"/><stop stop-color="#e4d2e4" offset="0.46"/><stop stop-color="#f4f4f5" offset="0.51"/><stop stop-color="#f4e8d8" offset="0.55"/><stop stop-color="#f5d6ac" offset="0.62"/><stop stop-color="#f5c787" offset="0.7"/><stop stop-color="#f6bb6b" offset="0.78"/><stop stop-color="#f6b356" offset="0.85"/><stop stop-color="#f6ae4a" offset="0.93"/><stop stop-color="#f6ac46" offset="1"/></linearGradient><linearGradient xlink:href="#linear-gradient" y2="107.67" x2="266.75" y1="107.67" x1="11.27" id="linear-gradient-2"/></defs><line data-cppathid="10000" y2="26.35" x2="162.33" y1="26.35" x1="154.11" class="cls-1"/><path data-cppathid="10001" d="M161.25,26.35l-1.31-2.16.07-.05,3.53,1.4,3.68.81-3.68.81L160,28.56l-.07,0Z" class="cls-2"/><line data-cppathid="10002" y2="26.35" x2="188.03" y1="26.35" x1="196.25" class="cls-1"/><path data-cppathid="10003" d="M189.11,26.35l1.31,2.16-.07,0-3.52-1.4-3.69-.81,3.69-.81,3.52-1.4.07,0Z" class="cls-2"/><polygon data-cppathid="10004" points="266.75 64.83 266.75 36.97 11.27 50.43 266.75 64.83" class="cls-3"/><rect data-cppathid="10005" height="44.94" width="2.37" y="21.49" x="167.51" class="cls-4"/><text data-cppathid="10006" transform="translate(157.68 40.12)" class="cls-5">H</text><polygon data-cppathid="10007" points="266.75 121.6 266.75 93.74 11.27 107.2 266.75 121.6" class="cls-6"/><rect data-cppathid="10008" height="44.94" width="2.37" y="78.26" x="167.51" class="cls-4"/><text data-cppathid="10009" transform="translate(164.68 134.89)" class="cls-5">H</text><text data-cppathid="10010" transform="translate(124.51 29.98)" class="cls-7">&lt; 0.5</text><line data-cppathid="10011" y2="83.98" x2="168.69" y1="60.06" x1="168.69" class="cls-1"/></svg>