<?xml version="1.0" encoding="UTF-8"?>
<svg xmlns="http://www.w3.org/2000/svg" onmouseup="{ if(window.parent.document.onmouseup) window.parent.document.onmouseup(arguments[0]);}" viewBox="0 0 295.12 254.77" data-name="Layer 1" id="Layer_1" xmlns:xlink="http://www.w3.org/1999/xlink"><defs><style>.cls-1,.cls-4,.cls-6{fill:#93288d;}.cls-1,.cls-6,.cls-7,.cls-8{stroke:#010101;}.cls-1,.cls-3,.cls-5,.cls-6,.cls-7,.cls-8{stroke-miterlimit:10;}.cls-1{stroke-width:0.46px;}.cls-2{font-size:12px;fill:#231f20;font-family:MyriadPro-Regular, Myriad Pro;}.cls-3,.cls-5{fill:none;}.cls-3{stroke:#93288d;stroke-width:2px;}.cls-5{stroke:#78777a;stroke-width:0.5px;}.cls-6,.cls-7,.cls-8{stroke-width:0.42px;}.cls-7,.cls-8{fill-opacity:0.5;}.cls-7{fill:url(#linear-gradient);}.cls-8{fill:url(#linear-gradient-2);}</style><linearGradient gradientUnits="userSpaceOnUse" y2="162.1" x2="285.52" y1="162.1" x1="30.04" id="linear-gradient"><stop stop-color="#93288d" offset="0"/><stop stop-color="#952d90" offset="0.06"/><stop stop-color="#9c3b97" offset="0.13"/><stop stop-color="#a753a3" offset="0.21"/><stop stop-color="#b774b4" offset="0.29"/><stop stop-color="#cc9fca" offset="0.37"/><stop stop-color="#e4d2e4" offset="0.46"/><stop stop-color="#f4f4f5" offset="0.51"/><stop stop-color="#f4e8d8" offset="0.55"/><stop stop-color="#f5d6ac" offset="0.62"/><stop stop-color="#f5c787" offset="0.7"/><stop stop-color="#f6bb6b" offset="0.78"/><stop stop-color="#f6b356" offset="0.85"/><stop stop-color="#f6ae4a" offset="0.93"/><stop stop-color="#f6ac46" offset="1"/></linearGradient><linearGradient xlink:href="#linear-gradient" y2="218.87" x2="285.52" y1="218.87" x1="30.04" id="linear-gradient-2"/></defs><rect data-cppathid="10000" height="44.94" width="2.37" y="189.46" x="83.53" class="cls-1"/><rect data-cppathid="10001" height="44.94" width="2.37" y="150.04" x="91.97" class="cls-1"/><text data-cppathid="10002" transform="translate(77.97 246.9)" class="cls-2">Na</text><line data-cppathid="10003" y2="191.03" x2="76.94" y1="191.03" x1="68.72" class="cls-3"/><path data-cppathid="10004" d="M75.86,191l-1.31-2.16.07-.05,3.53,1.4,3.68.81-3.68.81-3.53,1.4-.07,0Z" class="cls-4"/><line data-cppathid="10005" y2="190.56" x2="100.76" y1="190.56" x1="108.98" class="cls-3"/><path data-cppathid="10006" d="M101.84,190.56l1.32,2.17-.08.05-3.52-1.4-3.69-.82,3.69-.81,3.52-1.4.08,0Z" class="cls-4"/><rect data-cppathid="10007" height="14.15" width="14.17" y="66.92" x="30.07" class="cls-5"/><rect data-cppathid="10008" height="14.15" width="14.17" y="66.92" x="44.24" class="cls-5"/><rect data-cppathid="10009" height="14.15" width="14.17" y="66.92" x="58.42" class="cls-5"/><rect data-cppathid="10010" height="14.15" width="14.17" y="66.92" x="72.59" class="cls-5"/><rect data-cppathid="10011" height="14.15" width="14.17" y="66.92" x="86.76" class="cls-5"/><rect data-cppathid="10012" height="14.15" width="14.17" y="66.92" x="100.94" class="cls-5"/><rect data-cppathid="10013" height="14.15" width="14.17" y="66.92" x="115.11" class="cls-5"/><rect data-cppathid="10014" height="14.15" width="14.17" y="66.92" x="129.28" class="cls-5"/><rect data-cppathid="10015" height="14.15" width="14.17" y="66.92" x="143.46" class="cls-5"/><rect data-cppathid="10016" height="14.15" width="14.17" y="66.92" x="157.63" class="cls-5"/><rect data-cppathid="10017" height="14.15" width="14.17" y="66.92" x="171.8" class="cls-5"/><rect data-cppathid="10018" height="14.15" width="14.17" y="66.92" x="185.97" class="cls-5"/><rect data-cppathid="10019" height="14.15" width="14.17" y="66.92" x="200.15" class="cls-5"/><rect data-cppathid="10020" height="14.15" width="14.17" y="66.92" x="214.32" class="cls-5"/><rect data-cppathid="10021" height="14.15" width="14.17" y="66.92" x="228.49" class="cls-5"/><rect data-cppathid="10022" height="14.15" width="14.17" y="66.92" x="242.67" class="cls-5"/><rect data-cppathid="10023" height="14.15" width="14.17" y="66.92" x="256.84" class="cls-5"/><rect data-cppathid="10024" height="14.15" width="14.17" y="66.92" x="271.01" class="cls-5"/><rect data-cppathid="10025" height="14.15" width="14.17" y="81.07" x="30.07" class="cls-5"/><rect data-cppathid="10026" height="14.15" width="14.17" y="81.07" x="44.24" class="cls-5"/><rect data-cppathid="10027" height="14.15" width="14.17" y="38.63" x="30.07" class="cls-5"/><rect data-cppathid="10028" height="14.15" width="14.17" y="10.95" x="129.28" class="cls-5"/><rect data-cppathid="10029" height="14.15" width="14.17" y="38.63" x="44.24" class="cls-5"/><rect data-cppathid="10030" height="14.15" width="14.17" y="52.77" x="30.07" class="cls-5"/><rect data-cppathid="10031" height="14.15" width="14.17" y="52.77" x="44.24" class="cls-5"/><rect data-cppathid="10032" height="14.15" width="14.17" y="81.07" x="58.42" class="cls-5"/><rect data-cppathid="10033" height="14.15" width="14.17" y="81.07" x="72.59" class="cls-5"/><rect data-cppathid="10034" height="14.15" width="14.17" y="81.07" x="86.76" class="cls-5"/><rect data-cppathid="10035" height="14.15" width="14.17" y="81.07" x="100.94" class="cls-5"/><rect data-cppathid="10036" height="14.15" width="14.17" y="81.07" x="115.11" class="cls-5"/><rect data-cppathid="10037" height="14.15" width="14.17" y="81.07" x="129.28" class="cls-5"/><rect data-cppathid="10038" height="14.15" width="14.17" y="81.07" x="143.46" class="cls-5"/><rect data-cppathid="10039" height="14.15" width="14.17" y="81.07" x="157.63" class="cls-5"/><rect data-cppathid="10040" height="14.15" width="14.17" y="81.07" x="171.8" class="cls-5"/><rect data-cppathid="10041" height="14.15" width="14.17" y="81.07" x="185.97" class="cls-5"/><rect data-cppathid="10042" height="14.15" width="14.17" y="81.07" x="200.15" class="cls-5"/><rect data-cppathid="10043" height="14.15" width="14.17" y="81.07" x="214.32" class="cls-5"/><rect data-cppathid="10044" height="14.15" width="14.17" y="81.07" x="228.49" class="cls-5"/><rect data-cppathid="10045" height="14.15" width="14.17" y="81.07" x="242.67" class="cls-5"/><rect data-cppathid="10046" height="14.15" width="14.17" y="81.07" x="256.84" class="cls-5"/><rect data-cppathid="10047" height="14.15" width="14.17" y="81.07" x="271.01" class="cls-5"/><rect data-cppathid="10048" height="14.15" width="14.17" y="38.63" x="200.15" class="cls-5"/><rect data-cppathid="10049" height="14.15" width="14.17" y="38.63" x="214.32" class="cls-5"/><rect data-cppathid="10050" height="14.15" width="14.17" y="38.63" x="228.49" class="cls-5"/><rect data-cppathid="10051" height="14.15" width="14.17" y="38.63" x="242.67" class="cls-5"/><rect data-cppathid="10052" height="14.15" width="14.17" y="38.63" x="256.84" class="cls-5"/><rect data-cppathid="10053" height="14.15" width="14.17" y="38.63" x="271.01" class="cls-5"/><rect data-cppathid="10054" height="14.15" width="14.17" y="24.47" x="271.14" class="cls-5"/><rect data-cppathid="10055" height="14.15" width="14.17" y="52.77" x="200.15" class="cls-5"/><rect data-cppathid="10056" height="14.15" width="14.17" y="52.77" x="214.32" class="cls-5"/><rect data-cppathid="10057" height="14.15" width="14.17" y="52.77" x="228.49" class="cls-5"/><rect data-cppathid="10058" height="14.15" width="14.17" y="52.77" x="242.67" class="cls-5"/><rect data-cppathid="10059" height="14.15" width="14.17" y="52.77" x="256.84" class="cls-5"/><rect data-cppathid="10060" height="14.15" width="14.17" y="52.77" x="271.01" class="cls-5"/><rect data-cppathid="10061" height="14.15" width="14.17" y="95.22" x="30.07" class="cls-5"/><rect data-cppathid="10062" height="14.15" width="14.17" y="95.22" x="44.24" class="cls-5"/><rect data-cppathid="10063" height="14.15" width="14.17" y="95.22" x="58.42" class="cls-5"/><rect data-cppathid="10064" height="14.15" width="14.17" y="95.22" x="72.59" class="cls-5"/><rect data-cppathid="10065" height="14.15" width="14.17" y="95.22" x="86.76" class="cls-5"/><rect data-cppathid="10066" height="14.15" width="14.17" y="95.22" x="100.94" class="cls-5"/><rect data-cppathid="10067" height="14.15" width="14.17" y="95.22" x="115.11" class="cls-5"/><rect data-cppathid="10068" height="14.15" width="14.17" y="95.22" x="129.28" class="cls-5"/><rect data-cppathid="10069" height="14.15" width="14.17" y="95.22" x="143.46" class="cls-5"/><rect data-cppathid="10070" height="14.15" width="14.17" y="95.22" x="157.63" class="cls-5"/><rect data-cppathid="10071" height="14.15" width="14.17" y="95.22" x="171.8" class="cls-5"/><rect data-cppathid="10072" height="14.15" width="14.17" y="95.22" x="185.97" class="cls-5"/><rect data-cppathid="10073" height="14.15" width="14.17" y="95.22" x="200.15" class="cls-5"/><rect data-cppathid="10074" height="14.15" width="14.17" y="95.22" x="214.32" class="cls-5"/><rect data-cppathid="10075" height="14.15" width="14.17" y="95.22" x="228.49" class="cls-5"/><rect data-cppathid="10076" height="14.15" width="14.17" y="95.22" x="242.67" class="cls-5"/><rect data-cppathid="10077" height="14.15" width="14.17" y="95.22" x="256.84" class="cls-5"/><rect data-cppathid="10078" height="14.15" width="14.17" y="95.22" x="271.01" class="cls-5"/><rect data-cppathid="10079" height="14.15" width="14.17" y="109.36" x="30.07" class="cls-5"/><rect data-cppathid="10080" height="14.15" width="14.17" y="109.36" x="44.24" class="cls-5"/><rect data-cppathid="10081" height="14.15" width="14.17" y="109.36" x="58.42" class="cls-5"/><rect data-cppathid="10082" height="14.15" width="14.17" y="109.36" x="72.59" class="cls-5"/><rect data-cppathid="10083" height="14.15" width="14.17" y="109.36" x="86.76" class="cls-5"/><rect data-cppathid="10084" height="14.15" width="14.17" y="109.36" x="100.94" class="cls-5"/><rect data-cppathid="10085" height="14.15" width="14.17" y="109.36" x="115.11" class="cls-5"/><rect data-cppathid="10086" height="14.15" width="14.17" y="109.36" x="129.28" class="cls-5"/><rect data-cppathid="10087" height="14.15" width="14.17" y="109.36" x="143.46" class="cls-5"/><rect data-cppathid="10088" height="14.15" width="14.17" y="109.36" x="157.63" class="cls-5"/><rect data-cppathid="10089" height="14.15" width="14.17" y="109.36" x="171.8" class="cls-5"/><rect data-cppathid="10090" height="14.15" width="14.17" y="109.36" x="185.97" class="cls-5"/><rect data-cppathid="10091" height="14.15" width="14.17" y="109.36" x="200.15" class="cls-5"/><rect data-cppathid="10092" height="14.15" width="14.17" y="109.36" x="214.32" class="cls-5"/><rect data-cppathid="10093" height="14.15" width="14.17" y="109.36" x="228.49" class="cls-5"/><rect data-cppathid="10094" height="14.15" width="14.17" y="109.36" x="242.67" class="cls-5"/><rect data-cppathid="10095" height="14.15" width="14.17" y="109.36" x="256.84" class="cls-5"/><rect data-cppathid="10096" height="14.15" width="14.17" y="109.36" x="271.01" class="cls-5"/><rect data-cppathid="10097" height="14.73" width="14.38" y="52.02" x="30.04" class="cls-6"/><rect data-cppathid="10098" height="14.73" width="14.38" y="52.35" x="44.63" class="cls-6"/><polygon data-cppathid="10099" points="285.52 176.03 285.52 148.17 30.04 161.63 285.52 176.03" class="cls-7"/><polygon data-cppathid="10100" points="285.52 232.8 285.52 204.94 30.04 218.4 285.52 232.8" class="cls-8"/><text data-cppathid="10101" transform="translate(85.37 144.09)" class="cls-2">Mg</text></svg>